<?xml version="1.0" encoding="UTF-8" standalone="no"?>
<!DOCTYPE svg PUBLIC "-//W3C//DTD SVG 1.1//EN"
 "http://www.w3.org/Graphics/SVG/1.1/DTD/svg11.dtd">
<!-- Generated by graphviz version 2.40.1 (20161225.0304)
 -->
<!-- Title: %3 Pages: 1 -->
<svg width="417pt" height="179pt"
 viewBox="0.00 0.00 417.36 179.00" xmlns="http://www.w3.org/2000/svg" xmlns:xlink="http://www.w3.org/1999/xlink">
<g id="graph0" class="graph" transform="scale(1 1) rotate(0) translate(4 175)">
<title>%3</title>
<polygon fill="#ffffff" stroke="transparent" points="-4,4 -4,-175 413.3555,-175 413.3555,4 -4,4"/>
<!-- HighlightJS -->
<g id="node1" class="node">
<title>HighlightJS</title>
<ellipse fill="none" stroke="#000000" cx="52.3681" cy="-153" rx="52.2364" ry="18"/>
<text text-anchor="middle" x="52.3681" y="-148.8" font-family="Times,serif" font-size="14.00" fill="#000000">HighlightJS</text>
</g>
<!-- RevealJS -->
<g id="node2" class="node">
<title>RevealJS</title>
<ellipse fill="none" stroke="#000000" cx="183.7555" cy="-126" rx="43.0387" ry="18"/>
<text text-anchor="middle" x="183.7555" y="-121.8" font-family="Times,serif" font-size="14.00" fill="#000000">RevealJS</text>
</g>
<!-- HighlightJS&#45;&gt;RevealJS -->
<g id="edge1" class="edge">
<title>HighlightJS&#45;&gt;RevealJS</title>
<path fill="none" stroke="#000000" d="M97.5841,-143.7081C109.6465,-141.2293 122.7323,-138.5402 134.9768,-136.024"/>
<polygon fill="#000000" stroke="#000000" points="135.9326,-139.4008 145.0234,-133.9594 134.5235,-132.5441 135.9326,-139.4008"/>
</g>
<!-- MC2 -->
<g id="node4" class="node">
<title>MC2</title>
<ellipse fill="none" stroke="#000000" cx="291.0652" cy="-72" rx="28.0822" ry="18"/>
<text text-anchor="middle" x="291.0652" y="-67.8" font-family="Times,serif" font-size="14.00" fill="#000000">MC2</text>
</g>
<!-- RevealJS&#45;&gt;MC2 -->
<g id="edge3" class="edge">
<title>RevealJS&#45;&gt;MC2</title>
<path fill="none" stroke="#000000" d="M211.3904,-112.0937C226.0983,-104.6924 244.2482,-95.5591 259.5082,-87.88"/>
<polygon fill="#000000" stroke="#000000" points="261.2203,-90.9367 268.5798,-83.315 258.0737,-84.6837 261.2203,-90.9367"/>
</g>
<!-- Markdown -->
<g id="node3" class="node">
<title>Markdown</title>
<ellipse fill="none" stroke="#000000" cx="52.3681" cy="-99" rx="48.8273" ry="18"/>
<text text-anchor="middle" x="52.3681" y="-94.8" font-family="Times,serif" font-size="14.00" fill="#000000">Markdown</text>
</g>
<!-- Markdown&#45;&gt;RevealJS -->
<g id="edge2" class="edge">
<title>Markdown&#45;&gt;RevealJS</title>
<path fill="none" stroke="#000000" d="M95.3892,-107.8408C108.0267,-110.4378 121.94,-113.297 134.913,-115.9629"/>
<polygon fill="#000000" stroke="#000000" points="134.5734,-119.4662 145.0732,-118.0508 135.9825,-112.6095 134.5734,-119.4662"/>
</g>
<!-- next -->
<g id="node7" class="node">
<title>next</title>
<ellipse fill="none" stroke="#000000" cx="382.3555" cy="-72" rx="27" ry="18"/>
<text text-anchor="middle" x="382.3555" y="-67.8" font-family="Times,serif" font-size="14.00" fill="#000000">?</text>
</g>
<!-- MC2&#45;&gt;next -->
<g id="edge6" class="edge">
<title>MC2&#45;&gt;next</title>
<path fill="none" stroke="#000000" d="M319.4496,-72C327.5616,-72 336.5266,-72 345.0848,-72"/>
<polygon fill="#000000" stroke="#000000" points="345.2377,-75.5001 355.2376,-72 345.2376,-68.5001 345.2377,-75.5001"/>
</g>
<!-- Graphviz -->
<g id="node5" class="node">
<title>Graphviz</title>
<ellipse fill="none" stroke="#000000" cx="183.7555" cy="-72" rx="43.0215" ry="18"/>
<text text-anchor="middle" x="183.7555" y="-67.8" font-family="Times,serif" font-size="14.00" fill="#000000">Graphviz</text>
</g>
<!-- Graphviz&#45;&gt;MC2 -->
<g id="edge4" class="edge">
<title>Graphviz&#45;&gt;MC2</title>
<path fill="none" stroke="#000000" d="M226.7841,-72C235.2299,-72 244.0415,-72 252.3362,-72"/>
<polygon fill="#000000" stroke="#000000" points="252.4998,-75.5001 262.4997,-72 252.4997,-68.5001 252.4998,-75.5001"/>
</g>
<!-- Firebase -->
<g id="node6" class="node">
<title>Firebase</title>
<ellipse fill="none" stroke="#000000" cx="183.7555" cy="-18" rx="40.1317" ry="18"/>
<text text-anchor="middle" x="183.7555" y="-13.8" font-family="Times,serif" font-size="14.00" fill="#000000">Firebase</text>
</g>
<!-- Firebase&#45;&gt;MC2 -->
<g id="edge5" class="edge">
<title>Firebase&#45;&gt;MC2</title>
<path fill="none" stroke="#000000" d="M210.5574,-31.4872C225.3632,-38.9377 243.8446,-48.2378 259.3646,-56.0477"/>
<polygon fill="#000000" stroke="#000000" points="258.0798,-59.3194 268.5859,-60.6881 261.2264,-53.0664 258.0798,-59.3194"/>
</g>
</g>
</svg>
