<?xml version="1.0" encoding="UTF-8" standalone="no"?>
<!DOCTYPE svg PUBLIC "-//W3C//DTD SVG 1.1//EN"
 "http://www.w3.org/Graphics/SVG/1.1/DTD/svg11.dtd">
<!-- Generated by graphviz version 2.40.1 (20161225.0304)
 -->
<!-- Title: %3 Pages: 1 -->
<svg width="417pt" height="125pt"
 viewBox="0.00 0.00 417.36 125.00" xmlns="http://www.w3.org/2000/svg" xmlns:xlink="http://www.w3.org/1999/xlink">
<g id="graph0" class="graph" transform="scale(1 1) rotate(0) translate(4 121)">
<title>%3</title>
<polygon fill="#ffffff" stroke="transparent" points="-4,4 -4,-121 413.3555,-121 413.3555,4 -4,4"/>
<!-- HighlightJS -->
<g id="node1" class="node">
<title>HighlightJS</title>
<ellipse fill="none" stroke="#000000" cx="52.3681" cy="-99" rx="52.2364" ry="18"/>
<text text-anchor="middle" x="52.3681" y="-94.8" font-family="Times,serif" font-size="14.00" fill="#000000">HighlightJS</text>
</g>
<!-- RevealJS -->
<g id="node2" class="node">
<title>RevealJS</title>
<ellipse fill="none" stroke="#000000" cx="183.7555" cy="-72" rx="43.0387" ry="18"/>
<text text-anchor="middle" x="183.7555" y="-67.8" font-family="Times,serif" font-size="14.00" fill="#000000">RevealJS</text>
</g>
<!-- HighlightJS&#45;&gt;RevealJS -->
<g id="edge1" class="edge">
<title>HighlightJS&#45;&gt;RevealJS</title>
<path fill="none" stroke="#000000" d="M97.5841,-89.7081C109.6465,-87.2293 122.7323,-84.5402 134.9768,-82.024"/>
<polygon fill="#000000" stroke="#000000" points="135.9326,-85.4008 145.0234,-79.9594 134.5235,-78.5441 135.9326,-85.4008"/>
</g>
<!-- MC2 -->
<g id="node4" class="node">
<title>MC2</title>
<ellipse fill="none" stroke="#000000" cx="291.0652" cy="-45" rx="28.0822" ry="18"/>
<text text-anchor="middle" x="291.0652" y="-40.8" font-family="Times,serif" font-size="14.00" fill="#000000">MC2</text>
</g>
<!-- RevealJS&#45;&gt;MC2 -->
<g id="edge3" class="edge">
<title>RevealJS&#45;&gt;MC2</title>
<path fill="none" stroke="#000000" d="M220.6854,-62.7081C231.7327,-59.9285 243.8311,-56.8845 254.8331,-54.1163"/>
<polygon fill="#000000" stroke="#000000" points="255.7234,-57.5014 264.5671,-51.6671 254.0154,-50.713 255.7234,-57.5014"/>
</g>
<!-- Markdown -->
<g id="node3" class="node">
<title>Markdown</title>
<ellipse fill="none" stroke="#000000" cx="52.3681" cy="-45" rx="48.8273" ry="18"/>
<text text-anchor="middle" x="52.3681" y="-40.8" font-family="Times,serif" font-size="14.00" fill="#000000">Markdown</text>
</g>
<!-- Markdown&#45;&gt;RevealJS -->
<g id="edge2" class="edge">
<title>Markdown&#45;&gt;RevealJS</title>
<path fill="none" stroke="#000000" d="M95.3892,-53.8408C108.0267,-56.4378 121.94,-59.297 134.913,-61.9629"/>
<polygon fill="#000000" stroke="#000000" points="134.5734,-65.4662 145.0732,-64.0508 135.9825,-58.6095 134.5734,-65.4662"/>
</g>
<!-- next -->
<g id="node6" class="node">
<title>next</title>
<ellipse fill="none" stroke="#000000" cx="382.3555" cy="-45" rx="27" ry="18"/>
<text text-anchor="middle" x="382.3555" y="-40.8" font-family="Times,serif" font-size="14.00" fill="#000000">?</text>
</g>
<!-- MC2&#45;&gt;next -->
<g id="edge5" class="edge">
<title>MC2&#45;&gt;next</title>
<path fill="none" stroke="#000000" d="M319.4496,-45C327.5616,-45 336.5266,-45 345.0848,-45"/>
<polygon fill="#000000" stroke="#000000" points="345.2377,-48.5001 355.2376,-45 345.2376,-41.5001 345.2377,-48.5001"/>
</g>
<!-- Graphviz -->
<g id="node5" class="node">
<title>Graphviz</title>
<ellipse fill="none" stroke="#000000" cx="183.7555" cy="-18" rx="43.0215" ry="18"/>
<text text-anchor="middle" x="183.7555" y="-13.8" font-family="Times,serif" font-size="14.00" fill="#000000">Graphviz</text>
</g>
<!-- Graphviz&#45;&gt;MC2 -->
<g id="edge4" class="edge">
<title>Graphviz&#45;&gt;MC2</title>
<path fill="none" stroke="#000000" d="M220.6854,-27.2919C231.7327,-30.0715 243.8311,-33.1155 254.8331,-35.8837"/>
<polygon fill="#000000" stroke="#000000" points="254.0154,-39.287 264.5671,-38.3329 255.7234,-32.4986 254.0154,-39.287"/>
</g>
</g>
</svg>
