<?xml version="1.0" encoding="UTF-8" standalone="no"?>
<!DOCTYPE svg PUBLIC "-//W3C//DTD SVG 1.1//EN"
 "http://www.w3.org/Graphics/SVG/1.1/DTD/svg11.dtd">
<!-- Generated by graphviz version 2.40.1 (20161225.0304)
 -->
<!-- Title: %3 Pages: 1 -->
<svg width="266pt" height="188pt"
 viewBox="0.00 0.00 266.38 188.00" xmlns="http://www.w3.org/2000/svg" xmlns:xlink="http://www.w3.org/1999/xlink">
<g id="graph0" class="graph" transform="scale(1 1) rotate(0) translate(4 184)">
<title>%3</title>
<polygon fill="#ffffff" stroke="transparent" points="-4,4 -4,-184 262.3788,-184 262.3788,4 -4,4"/>
<!-- HighlightJS -->
<g id="node1" class="node">
<title>HighlightJS</title>
<ellipse fill="none" stroke="#000000" cx="52.3681" cy="-162" rx="52.2364" ry="18"/>
<text text-anchor="middle" x="52.3681" y="-157.8" font-family="Times,serif" font-size="14.00" fill="#000000">HighlightJS</text>
</g>
<!-- RevealJS -->
<g id="node2" class="node">
<title>RevealJS</title>
<ellipse fill="none" stroke="#000000" cx="111.3681" cy="-90" rx="43.0387" ry="18"/>
<text text-anchor="middle" x="111.3681" y="-85.8" font-family="Times,serif" font-size="14.00" fill="#000000">RevealJS</text>
</g>
<!-- HighlightJS&#45;&gt;RevealJS -->
<g id="edge1" class="edge">
<title>HighlightJS&#45;&gt;RevealJS</title>
<path fill="none" stroke="#000000" d="M66.6503,-144.5708C73.8974,-135.7269 82.8318,-124.8239 90.8045,-115.0945"/>
<polygon fill="#000000" stroke="#000000" points="93.5862,-117.2219 97.2173,-107.2687 88.1719,-112.7851 93.5862,-117.2219"/>
</g>
<!-- MC2 -->
<g id="node4" class="node">
<title>MC2</title>
<ellipse fill="none" stroke="#000000" cx="163.3681" cy="-18" rx="28.0822" ry="18"/>
<text text-anchor="middle" x="163.3681" y="-13.8" font-family="Times,serif" font-size="14.00" fill="#000000">MC2</text>
</g>
<!-- RevealJS&#45;&gt;MC2 -->
<g id="edge3" class="edge">
<title>RevealJS&#45;&gt;MC2</title>
<path fill="none" stroke="#000000" d="M123.9558,-72.5708C130.3722,-63.6866 138.2893,-52.7245 145.3403,-42.9615"/>
<polygon fill="#000000" stroke="#000000" points="148.2367,-44.929 151.2543,-34.7729 142.562,-40.8305 148.2367,-44.929"/>
</g>
<!-- Markdown -->
<g id="node3" class="node">
<title>Markdown</title>
<ellipse fill="none" stroke="#000000" cx="171.3681" cy="-162" rx="48.8273" ry="18"/>
<text text-anchor="middle" x="171.3681" y="-157.8" font-family="Times,serif" font-size="14.00" fill="#000000">Markdown</text>
</g>
<!-- Markdown&#45;&gt;RevealJS -->
<g id="edge2" class="edge">
<title>Markdown&#45;&gt;RevealJS</title>
<path fill="none" stroke="#000000" d="M156.8437,-144.5708C149.4738,-135.7269 140.388,-124.8239 132.2801,-115.0945"/>
<polygon fill="#000000" stroke="#000000" points="134.8493,-112.7103 125.7586,-107.2687 129.4717,-117.1916 134.8493,-112.7103"/>
</g>
<!-- Graphviz -->
<g id="node5" class="node">
<title>Graphviz</title>
<ellipse fill="none" stroke="#000000" cx="215.3681" cy="-90" rx="43.0215" ry="18"/>
<text text-anchor="middle" x="215.3681" y="-85.8" font-family="Times,serif" font-size="14.00" fill="#000000">Graphviz</text>
</g>
<!-- Graphviz&#45;&gt;MC2 -->
<g id="edge4" class="edge">
<title>Graphviz&#45;&gt;MC2</title>
<path fill="none" stroke="#000000" d="M202.7803,-72.5708C196.3639,-63.6866 188.4468,-52.7245 181.3958,-42.9615"/>
<polygon fill="#000000" stroke="#000000" points="184.1742,-40.8305 175.4818,-34.7729 178.4994,-44.929 184.1742,-40.8305"/>
</g>
</g>
</svg>
